<?xml version="1.0" encoding="iso-8859-1"?>
<!-- Generator: Adobe Illustrator 16.0.0, SVG Export Plug-In . SVG Version: 6.00 Build 0)  -->
<!DOCTYPE svg PUBLIC "-//W3C//DTD SVG 1.1//EN" "http://www.w3.org/Graphics/SVG/1.1/DTD/svg11.dtd">
<svg version="1.1" id="Capa_1" xmlns="http://www.w3.org/2000/svg" xmlns:xlink="http://www.w3.org/1999/xlink" x="0px" y="0px"
	 width="23.5px" height="23.5px" viewBox="0 0 23.5 23.5" style="enable-background:new 0 0 23.5 23.5;" xml:space="preserve">
<g>
	<g>
		<path d="M21.5,2.5h-16c-1.1,0-2,0.9-2,2v8H2.498c-0.389,0.001-0.763,0.09-1.109,0.264l0.445,0.895
			C2.043,13.554,2.268,13.501,2.5,13.5h1v2c0,1.101,0.9,2,2,2H10v1c0,0.511-0.259,0.981-0.691,1.263l0.541,0.84
			C10.57,20.138,11,19.351,11,18.5v-1h10.5c1.1,0,2-0.9,2-2v-11C23.5,3.399,22.6,2.5,21.5,2.5z"/>
		<path d="M1,18.5v-1.719H0V18.5c0,0.118,0.009,0.234,0.024,0.35l0.99-0.138C1.005,18.642,1,18.57,1,18.5z"/>
		<path d="M1,15c0-0.309,0.094-0.604,0.271-0.855L0.453,13.57C0.156,13.991,0,14.484,0,15v0.781h1V15z"/>
		<rect x="3.641" y="20" width="2" height="1"/>
		<path d="M6.641,20v1H8.5c0.058,0,0.114-0.002,0.172-0.006l-0.063-0.998L6.641,20z"/>
		<path d="M1.299,19.394l-0.801,0.601C0.97,20.625,1.718,21,2.5,21h0.141v-1H2.5C2.031,20,1.582,19.773,1.299,19.394z"/>
	</g>
</g>
<g>
</g>
<g>
</g>
<g>
</g>
<g>
</g>
<g>
</g>
<g>
</g>
<g>
</g>
<g>
</g>
<g>
</g>
<g>
</g>
<g>
</g>
<g>
</g>
<g>
</g>
<g>
</g>
<g>
</g>
</svg>
