<?xml version="1.0" encoding="iso-8859-1"?>
<!-- Generator: Adobe Illustrator 19.0.0, SVG Export Plug-In . SVG Version: 6.00 Build 0)  -->
<svg version="1.1" id="Layer_1" xmlns="http://www.w3.org/2000/svg" xmlns:xlink="http://www.w3.org/1999/xlink" x="0px" y="0px"
	 viewBox="0 0 512 512" style="enable-background:new 0 0 512 512;" xml:space="preserve">
<polygon style="fill:#CCCCCC;" points="303.995,473.732 207.993,473.732 216.031,440.249 223.797,407.946 288.203,407.946 
	295.956,440.249 "/>
<polygon style="fill:#999999;" points="295.956,440.249 216.031,440.249 223.797,407.946 249.925,375.918 288.203,407.946 "/>
<path style="fill:#CCCCCC;" d="M512,62.829v311.238c0,18.711-15.17,33.881-33.881,33.881H33.881C15.17,407.946,0,392.778,0,374.067
	V62.829c0-18.711,15.17-33.881,33.881-33.881h444.239C496.83,28.947,512,44.118,512,62.829z"/>
<path style="fill:#E6E6E6;" d="M512,62.829v311.238c0,18.711-15.17,33.881-33.881,33.881H205.943L312.207,28.948h165.912
	C496.83,28.947,512,44.118,512,62.829z"/>
<rect y="75.427" style="fill:#9BD7F4;" width="512" height="286.042"/>
<polygon style="fill:#C8EDFC;" points="512,75.427 512,361.469 218.976,361.469 299.174,75.427 "/>
<rect x="177.715" y="464.415" style="fill:#E6E6E6;" width="156.557" height="18.636"/>
<g>
	<rect y="69.836" style="fill:#B3B3B3;" width="512" height="11.182"/>
	<rect y="356.835" style="fill:#B3B3B3;" width="512" height="11.182"/>
</g>
<g>
	<path style="fill:#F94B54;" d="M402.295,229.077v-90.759h-14.027L323.09,226.84v20.873h60.568v41.559h18.636v-41.559h11.629
		v-18.636H402.295z M383.658,229.077h-39.074l39.074-53.076V229.077z"/>
	<path style="fill:#F94B54;" d="M288.266,151.698c-2.584-2.584-5.467-4.845-8.585-6.759c-6.908-4.199-15.021-6.622-23.68-6.622
		c-25.184,0-45.671,20.475-45.671,45.659v68.942c0,18.674,11.269,34.763,27.358,41.832c5.603,2.472,11.803,3.839,18.313,3.839
		c25.171,0,45.659-20.487,45.659-45.671v-68.942C301.659,171.391,296.54,159.974,288.266,151.698z M283.023,252.919
		c0,14.909-12.126,27.035-27.023,27.035c-4.796,0-9.306-1.255-13.207-3.454c-8.25-4.634-13.828-13.468-13.828-23.581v-68.942
		c0-14.909,12.126-27.023,27.035-27.023c7.057,0,13.48,2.721,18.301,7.181c5.355,4.92,8.722,11.989,8.722,19.841V252.919
		L283.023,252.919z"/>
	<path style="fill:#F94B54;" d="M174.212,229.077v-90.759h-14.027L95.008,226.84v20.873h60.568v41.559h18.636v-41.559h11.629
		v-18.636H174.212z M155.575,229.077h-39.074l39.074-53.076V229.077z"/>
</g>
<g>
	<path style="fill:#F98791;" d="M301.659,183.977v68.942c0,25.184-20.487,45.671-45.659,45.671c-6.51,0-12.71-1.367-18.313-3.839
		l5.106-18.251c3.901,2.199,8.411,3.454,13.207,3.454c14.897,0,27.023-12.126,27.023-27.035v-68.942
		c0-7.852-3.367-14.921-8.722-19.841l5.38-19.195c3.118,1.913,6.001,4.175,8.585,6.759
		C296.54,159.974,301.659,171.391,301.659,183.977z"/>
	<path style="fill:#F98791;" d="M402.295,229.077v-90.759h-14.027L323.09,226.84v20.873h60.568v41.559h18.636v-41.559h11.629
		v-18.636H402.295z M383.658,229.077h-39.074l39.074-53.076V229.077z"/>
</g>
<g>
</g>
<g>
</g>
<g>
</g>
<g>
</g>
<g>
</g>
<g>
</g>
<g>
</g>
<g>
</g>
<g>
</g>
<g>
</g>
<g>
</g>
<g>
</g>
<g>
</g>
<g>
</g>
<g>
</g>
</svg>
